<svg width="50" height="50" viewBox="0 0 50 50" fill="none" xmlns="http://www.w3.org/2000/svg">
<g id="instagram" filter="url(#filter0_bi_1_802)">
<rect x="0.632446" y="0.584961" width="48.7047" height="48.7047" rx="17" fill="white" fill-opacity="0.02"/>
<g id="instagram_2">
<path d="M24.9848 16.6577C27.6635 16.6577 28.0288 16.6577 29.1247 16.6577C30.0988 16.6577 30.5858 16.9012 30.9511 17.023C31.4381 17.2665 31.8034 17.3883 32.1687 17.7536C32.534 18.1189 32.7775 18.4842 32.8993 18.9712C33.021 19.3365 33.1428 19.8235 33.2646 20.7976C33.2646 21.8935 33.2646 22.137 33.2646 24.9375C33.2646 27.7381 33.2646 27.9816 33.2646 29.0774C33.2646 30.0515 33.021 30.5386 32.8993 30.9039C32.6558 31.3909 32.534 31.7562 32.1687 32.1215C31.8034 32.4868 31.4381 32.7303 30.9511 32.852C30.5858 32.9738 30.0988 33.0956 29.1247 33.2173C28.0288 33.2173 27.7853 33.2173 24.9848 33.2173C22.1842 33.2173 21.9407 33.2173 20.8449 33.2173C19.8708 33.2173 19.3837 32.9738 19.0184 32.852C18.5314 32.6085 18.1661 32.4868 17.8008 32.1215C17.4355 31.7562 17.192 31.3909 17.0703 30.9039C16.9485 30.5386 16.8267 30.0515 16.705 29.0774C16.705 27.9816 16.705 27.7381 16.705 24.9375C16.705 22.137 16.705 21.8935 16.705 20.7976C16.705 19.8235 16.9485 19.3365 17.0703 18.9712C17.3138 18.4842 17.4355 18.1189 17.8008 17.7536C18.1661 17.3883 18.5314 17.1448 19.0184 17.023C19.3837 16.9012 19.8708 16.7795 20.8449 16.6577C21.9407 16.6577 22.306 16.6577 24.9848 16.6577ZM24.9848 14.8313C22.1842 14.8313 21.9407 14.8313 20.8449 14.8313C19.749 14.8313 19.0184 15.0748 18.4096 15.3183C17.8008 15.5619 17.192 15.9272 16.5832 16.536C15.9744 17.1448 15.7309 17.6318 15.3656 18.3624C15.1221 18.9712 15.0003 19.7018 14.8785 20.7976C14.8785 21.8935 14.8785 22.2588 14.8785 24.9375C14.8785 27.7381 14.8785 27.9816 14.8785 29.0774C14.8785 30.1733 15.1221 30.9039 15.3656 31.5127C15.6091 32.1215 15.9744 32.7303 16.5832 33.3391C17.192 33.9479 17.6791 34.1914 18.4096 34.5567C19.0184 34.8002 19.749 34.922 20.8449 35.0438C21.9407 35.0438 22.306 35.0438 24.9848 35.0438C27.6635 35.0438 28.0288 35.0438 29.1247 35.0438C30.2205 35.0438 30.9511 34.8002 31.5599 34.5567C32.1687 34.3132 32.7775 33.9479 33.3863 33.3391C33.9951 32.7303 34.2387 32.2432 34.604 31.5127C34.8475 30.9039 34.9692 30.1733 35.091 29.0774C35.091 27.9816 35.091 27.6163 35.091 24.9375C35.091 22.2588 35.091 21.8935 35.091 20.7976C35.091 19.7018 34.8475 18.9712 34.604 18.3624C34.3604 17.7536 33.9951 17.1448 33.3863 16.536C32.7775 15.9272 32.2905 15.6836 31.5599 15.3183C30.9511 15.0748 30.2205 14.9531 29.1247 14.8313C28.0288 14.8313 27.7853 14.8313 24.9848 14.8313Z" fill="white"/>
<path d="M24.9848 19.7018C22.0625 19.7018 19.749 22.0152 19.749 24.9375C19.749 27.8598 22.0625 30.1733 24.9848 30.1733C27.9071 30.1733 30.2205 27.8598 30.2205 24.9375C30.2205 22.0152 27.9071 19.7018 24.9848 19.7018ZM24.9848 28.3469C23.1583 28.3469 21.5754 26.8857 21.5754 24.9375C21.5754 23.1111 23.0366 21.5282 24.9848 21.5282C26.8112 21.5282 28.3941 22.9893 28.3941 24.9375C28.3941 26.764 26.8112 28.3469 24.9848 28.3469Z" fill="white"/>
<path d="M30.3423 20.7976C31.0148 20.7976 31.5599 20.2525 31.5599 19.58C31.5599 18.9075 31.0148 18.3624 30.3423 18.3624C29.6698 18.3624 29.1247 18.9075 29.1247 19.58C29.1247 20.2525 29.6698 20.7976 30.3423 20.7976Z" fill="white"/>
</g>
<rect x="1.13245" y="1.08496" width="47.7047" height="47.7047" rx="16.5" stroke="white" stroke-opacity="0.2"/>
</g>
<defs>
<filter id="filter0_bi_1_802" x="-40.3676" y="-40.415" width="130.705" height="130.705" filterUnits="userSpaceOnUse" color-interpolation-filters="sRGB">
<feFlood flood-opacity="0" result="BackgroundImageFix"/>
<feGaussianBlur in="BackgroundImageFix" stdDeviation="20.5"/>
<feComposite in2="SourceAlpha" operator="in" result="effect1_backgroundBlur_1_802"/>
<feBlend mode="normal" in="SourceGraphic" in2="effect1_backgroundBlur_1_802" result="shape"/>
<feColorMatrix in="SourceAlpha" type="matrix" values="0 0 0 0 0 0 0 0 0 0 0 0 0 0 0 0 0 0 127 0" result="hardAlpha"/>
<feOffset dy="4"/>
<feGaussianBlur stdDeviation="6.5"/>
<feComposite in2="hardAlpha" operator="arithmetic" k2="-1" k3="1"/>
<feColorMatrix type="matrix" values="0 0 0 0 1 0 0 0 0 1 0 0 0 0 1 0 0 0 0.08 0"/>
<feBlend mode="normal" in2="shape" result="effect2_innerShadow_1_802"/>
</filter>
</defs>
</svg>
